# xmcd
#
# Track frame offsets: 
#        150
#        12322
#        34045
#        42612
#        54777
#        68855
#        78272
#        93795
#        107555
#        131835
#        145102
#        161290
#        175767
#        190055
#
# Disc length: 2715 seconds
#
# Revision: 0
# Processed by: cddbd v1.5.1PL2 Copyright (c) Steve Scherf et al.
# Submitted via: ExactAudioCopy v0.95b2
#
DISCID=ab0a990e
DTITLE=The Whatnauts - I'll Erase Away Your Pain
DYEAR=1998
DGENRE=Soul
TTITLE0=Blues Fly Away
TTITLE1=Why Can't People Be Colors Too
TTITLE2=Souling With the Whatnauts
TTITLE3=Dance to the Music
TTITLE4=Just Can't Leave My Baby
TTITLE5=She's Gone to Another
TTITLE6=Friends By Day (Lovers By Night)
TTITLE7=You Gave Me True Loving
TTITLE8=World
TTITLE9=My Thing
TTITLE10=Alibis and Lies
TTITLE11=I'm So Glad I Found You (Linda Jones and The Whatnauts)
TTITLE12=I'll Erase Away Your Pain
TTITLE13=Strolling
EXTD=
EXTT0=
EXTT1=
EXTT2=
EXTT3=
EXTT4=
EXTT5=
EXTT6=
EXTT7=
EXTT8=
EXTT9=
EXTT10=
EXTT11=
EXTT12=
EXTT13=
PLAYORDER=
